<?xml version="1.0" encoding="UTF-8"?>
<svg xmlns="http://www.w3.org/2000/svg" xmlns:xlink="http://www.w3.org/1999/xlink" viewBox="0 0 60 60" width="60px" height="60px">
<g id="surface51929083">
<path style=" stroke:none;fill-rule:nonzero;fill:rgb(10.196079%,73.725492%,61.176473%);fill-opacity:1;" d="M 60 29.925781 C 60 34.277344 57.085938 37.199219 52.753906 37.199219 C 51.15625 37.199219 49.753906 36.800781 48.625 36.078125 C 48.441406 37.089844 48.128906 37.96875 47.582031 38.789062 C 46.617188 40.253906 44.636719 42 40.691406 42 C 39.199219 42 37.890625 41.769531 36.582031 41.273438 L 35.03125 40.6875 L 35.03125 37.199219 C 35.03125 37.199219 22.082031 37.199219 21.484375 37.199219 C 20.324219 37.199219 19.402344 37.023438 18.652344 36.738281 C 18.535156 37.085938 18.402344 37.425781 18.230469 37.753906 C 17.488281 39.195312 16.464844 40.140625 14.695312 41.019531 L 13.65625 41.535156 L 12.605469 41.042969 L 9.804688 39.71875 L 3.480469 36.210938 L 3.496094 36.210938 C 1.257812 35.039062 0 32.871094 0 29.933594 C 0 25.835938 2.699219 22.890625 6.671875 22.496094 L 6.671875 18 L 19.21875 18 L 19.21875 23.277344 C 20.25 22.96875 21.296875 22.800781 22.394531 22.800781 C 24.035156 22.800781 25.171875 23.195312 25.972656 23.726562 L 26.609375 23.554688 C 28.515625 23.03125 30.09375 22.800781 31.71875 22.800781 C 33.863281 22.800781 35.507812 23.394531 36.613281 24.574219 C 36.773438 24.742188 36.910156 24.914062 37.039062 25.089844 C 38.511719 23.722656 40.789062 22.800781 44.109375 22.800781 C 45.535156 22.800781 46.894531 22.941406 48.523438 23.265625 L 49.574219 23.472656 C 50.539062 23.039062 51.644531 22.800781 52.871094 22.800781 C 57.132812 22.800781 60 25.664062 60 29.925781 Z M 9.074219 20.398438 L 9.074219 25.007812 C 8.621094 24.890625 8.082031 24.851562 7.59375 24.851562 C 4.4375 24.851562 2.398438 26.851562 2.398438 29.933594 C 2.398438 33.128906 4.320312 34.796875 8.011719 34.800781 C 9.242188 34.800781 10.453125 34.683594 12 34.386719 L 12 20.398438 Z M 9.074219 27.4375 L 9.074219 32.289062 C 8.640625 32.347656 8.203125 32.367188 7.871094 32.367188 C 6.324219 32.367188 5.480469 31.480469 5.480469 29.875 C 5.480469 28.226562 6.359375 27.28125 7.890625 27.28125 C 8.261719 27.28125 8.71875 27.320312 9.074219 27.4375 Z M 13.785156 25.199219 L 13.785156 31.097656 C 13.785156 33.703125 13.648438 34.691406 13.21875 35.546875 C 12.804688 36.382812 12.160156 36.929688 10.828125 37.550781 L 13.628906 38.871094 C 14.960938 38.207031 15.609375 37.609375 16.097656 36.65625 C 16.621094 35.667969 16.800781 34.519531 16.800781 32.132812 L 16.800781 25.199219 Z M 13.800781 23.46875 L 16.820312 23.46875 L 16.820312 20.398438 L 13.800781 20.398438 Z M 18.59375 28.316406 C 19.714844 27.730469 20.910156 27.429688 21.96875 27.429688 C 22.695312 27.429688 22.957031 27.621094 22.957031 28.144531 L 22.957031 28.785156 C 19.433594 29.085938 18 30.027344 18 32.066406 C 18 33.953125 19.078125 34.800781 21.484375 34.800781 C 22.675781 34.800781 24.296875 34.664062 25.585938 34.476562 L 25.585938 28.578125 C 25.585938 27.367188 25.507812 26.804688 25.265625 26.371094 C 24.835938 25.597656 23.871094 25.199219 22.394531 25.199219 C 21.070312 25.199219 19.859375 25.464844 18.589844 26.066406 Z M 23.085938 30.6875 L 23.085938 32.632812 C 22.527344 32.726562 22.136719 32.761719 21.707031 32.761719 C 20.921875 32.761719 20.566406 32.496094 20.566406 31.933594 C 20.566406 31.175781 21.1875 30.875 23.085938 30.6875 Z M 27.238281 34.800781 L 30 34.800781 L 30 27.789062 C 30.574219 27.613281 31.011719 27.574219 31.402344 27.574219 C 32.417969 27.574219 32.894531 28 32.894531 29.128906 L 32.894531 34.800781 L 35.640625 34.800781 L 35.640625 29.011719 C 35.640625 27.539062 35.453125 26.847656 34.863281 26.214844 C 34.234375 25.546875 33.175781 25.199219 31.71875 25.199219 C 30.3125 25.199219 28.925781 25.410156 27.238281 25.867188 Z M 37.433594 36.320312 L 37.433594 39.027344 C 38.492188 39.429688 39.511719 39.601562 40.691406 39.601562 C 43.007812 39.601562 44.640625 38.894531 45.582031 37.464844 C 46.226562 36.492188 46.445312 35.3125 46.445312 32.800781 L 46.445312 32 C 46.425781 31.597656 46.425781 31.199219 46.40625 30.796875 L 46.386719 29.195312 L 46.347656 27.960938 L 46.347656 27.652344 C 46.953125 27.710938 46.214844 27.582031 47.019531 27.734375 L 48.054688 25.617188 C 46.605469 25.332031 45.40625 25.199219 44.109375 25.199219 C 39.695312 25.199219 37.199219 27.085938 37.199219 30.417969 C 37.199219 33.101562 38.886719 34.796875 41.535156 34.796875 C 42.316406 34.796875 42.910156 34.679688 43.496094 34.398438 L 43.496094 34.453125 C 43.496094 36.316406 42.652344 37.101562 40.671875 37.101562 C 39.550781 37.101562 38.492188 36.855469 37.433594 36.320312 Z M 43.441406 27.789062 L 43.460938 28.761719 L 43.480469 30.113281 C 43.480469 30.511719 43.5 30.894531 43.5 31.238281 L 43.5 32.25 C 43.109375 32.363281 42.773438 32.4375 42.363281 32.4375 C 41.027344 32.4375 40.28125 31.597656 40.28125 30.136719 C 40.28125 29.109375 40.65625 28.382812 41.378906 27.984375 C 41.851562 27.695312 42.539062 27.546875 43.125 27.566406 L 43.441406 27.566406 Z M 48 30.09375 C 48 32.996094 49.8125 34.800781 52.753906 34.800781 C 55.730469 34.800781 57.601562 32.921875 57.601562 29.925781 C 57.601562 27.003906 55.804688 25.199219 52.871094 25.199219 C 49.875 25.199219 48.003906 27.078125 48 30.09375 Z M 52.808594 32.488281 C 51.667969 32.488281 50.996094 31.578125 50.996094 29.996094 C 50.996094 28.414062 51.664062 27.503906 52.828125 27.503906 C 53.957031 27.503906 54.601562 28.433594 54.601562 29.996094 C 54.605469 31.578125 53.9375 32.488281 52.808594 32.488281 Z M 52.808594 32.488281 "/>
</g>
</svg>
