<?xml version="1.0" encoding="utf-8"?>
<!-- Generator: Adobe Illustrator 22.1.0, SVG Export Plug-In . SVG Version: 6.00 Build 0)  -->
<svg version="1.1" xmlns="http://www.w3.org/2000/svg" xmlns:xlink="http://www.w3.org/1999/xlink" x="0px" y="0px"
	 viewBox="0 0 1400 1000" style="enable-background:new 0 0 1400 1000;" xml:space="preserve">
<style type="text/css">
	.st0{fill:#F3FEFF;}
	.st1{fill:#D0F5F7;}
	.st2{fill:#4CCBFD;}
	.st3{fill:#1AB8E8;}
	.st4{fill:#F73131;}
	.st5{fill:#FFAD02;}
	.st6{fill:#0984AF;}
	.st7{fill:#FF8103;}
	.st8{fill:none;stroke:#37334C;stroke-width:5;stroke-linecap:round;stroke-linejoin:round;stroke-miterlimit:10;}
	.st9{fill:#CE0F0F;}
	.st10{fill:#FFFFFF;}
	.st11{fill:#37334C;}
	.st12{fill:#F97602;}
	.st13{fill:#EFF7F9;}
	.st14{fill:#D9DDDD;}
	.st15{fill:#07708C;}
	.st16{fill:#057593;}
	.st17{font-family:'Roboto-Bold';}
	.st18{font-size:51.9005px;}
	.st19{letter-spacing:5;}
	.st20{letter-spacing:3;}
	.st21{letter-spacing:4;}
	.st22{font-size:57.2586px;}
	.st23{fill:#F75606;}
	.st24{opacity:0.49;fill:#F97602;}
	.st25{fill:#D31111;}
</style>
<g id="BACKGROUND">
	<rect class="st0" width="1400" height="1000"/>
</g>
<g id="OBJECTS">
	<g>
		<g>
			<path class="st1" d="M941.7,354.5h205.8c13,0,23.6-10.6,23.6-23.6v0c0-13-10.6-23.6-23.6-23.6H922.3
				c-8.7-2.7-15.1-10.8-15.1-20.4v-4.6c0-9,5.6-16.7,13.5-19.8h42.6c11.7,0,21.3-9.6,21.3-21.3v-4.6c0-11.7-9.6-21.3-21.3-21.3
				H413.6c-11.7,0-21.3,9.6-21.3,21.3v4.6c0,11.7,9.6,21.3,21.3,21.3h85.4c7.9,3.1,13.5,10.8,13.5,19.8v4.6
				c0,9.6-6.4,17.7-15.1,20.4H293.3c-13,0-23.6,10.6-23.6,23.6v0c0,13,10.6,23.6,23.6,23.6h191.3c7.9,3.1,13.4,10.8,13.4,19.8v4.6
				c0,9.2-5.9,17.1-14.1,20H357.1c-11.7,0-21.3,9.6-21.3,21.3v4.6c0,11.7,9.6,21.3,21.3,21.3h59c9.7,2,17,10.6,17,20.8v4.6
				c0,10.6-7.9,19.5-18.1,21h-91.2c-11.7,0-21.3,9.6-21.3,21.3v4.6c0,11.7,9.6,21.3,21.3,21.3h89.8c9.7,2,17,10.6,17,20.9v4.6
				c0,10.2-7.3,18.8-17,20.8H278.2c-11.7,0-21.3,9.6-21.3,21.3v4.6c0,11.7,9.6,21.3,21.3,21.3h217.3c9.7,2,17,10.6,17,20.9v4.6
				c0,9.1-5.8,17-13.9,20H370c-11.7,0-21.3,9.6-21.3,21.3v4.6c0,11.7,9.6,21.3,21.3,21.3h642.4c11.7,0,21.3-9.6,21.3-21.3V700
				c0-11.7-9.6-21.3-21.3-21.3h-91.3c-8.1-3-13.9-10.8-13.9-20v-4.6c0-10.2,7.3-18.9,17-20.9h225c11.7,0,21.3-9.6,21.3-21.3v-4.6
				c0-11.7-9.6-21.3-21.3-21.3h-137.8c-9.7-2-17-10.6-17-20.8v-4.6c0-10.2,7.3-18.9,17-20.9h89.8c11.7,0,21.3-9.6,21.3-21.3v-4.6
				c0-11.7-9.6-21.3-21.3-21.3H1015c-10.2-1.5-18.1-10.4-18.1-21V467c0-10.2,7.3-18.8,17-20.8h66.6c11.7,0,21.3-9.6,21.3-21.3v-4.6
				c0-11.7-9.6-21.3-21.3-21.3H942.3c-8.2-3-14.1-10.8-14.1-20v-4.6C928.2,365.4,933.8,357.7,941.7,354.5z"/>
			<path class="st1" d="M322.6,262.6H346c13,0,23.6-10.6,23.6-23.6v0c0-13-10.6-23.6-23.6-23.6h-23.5c-11.7,0-21.3,9.6-21.3,21.3
				v4.6C301.3,253,310.9,262.6,322.6,262.6z"/>
			<path class="st1" d="M188.3,354.5h26.5c13,0,23.6-10.6,23.6-23.6v0c0-13-10.6-23.6-23.6-23.6h-26.5c-13,0-23.6,10.6-23.6,23.6v0
				C164.7,343.9,175.4,354.5,188.3,354.5z"/>
			<path class="st1" d="M266,446.1h27.5c13,0,23.6-10.6,23.6-23.6v0c0-13-10.6-23.6-23.6-23.6H266c-11.7,0-21.3,9.6-21.3,21.3v4.6
				C244.7,436.5,254.3,446.1,266,446.1z"/>
			<path class="st1" d="M207.1,586.1h-58.5c-11.7,0-21.3,9.6-21.3,21.3v4.6c0,11.7,9.6,21.3,21.3,21.3h58.5
				c13,0,23.6-10.6,23.6-23.6v0C230.7,596.6,220.1,586.1,207.1,586.1z"/>
			<path class="st1" d="M240.8,539.8h19.1c13,0,23.6-10.6,23.6-23.6v0c0-13-10.6-23.6-23.6-23.6h-19.1c-11.7,0-21.3,9.6-21.3,21.3
				v4.6C219.5,530.2,229.1,539.8,240.8,539.8z"/>
			<path class="st1" d="M305,678.7h-14.6c-11.7,0-21.3,9.6-21.3,21.3v4.6c0,11.7,9.6,21.3,21.3,21.3H305c13,0,23.6-10.6,23.6-23.6v0
				C328.6,689.2,318.1,678.7,305,678.7z"/>
			<path class="st1" d="M1151.5,677h-55.8c-13,0-23.6,10.6-23.6,23.6v0c0,13,10.6,23.6,23.6,23.6h55.8c11.7,0,21.3-9.6,21.3-21.3
				v-4.6C1172.8,686.6,1163.2,677,1151.5,677z"/>
			<path class="st1" d="M1170.4,490.2h-4.9c-13,0-23.6,10.6-23.6,23.6l0,0c0,13,10.6,23.6,23.6,23.6h4.9c11.7,0,21.3-9.6,21.3-21.3
				v-4.6C1191.6,499.8,1182.1,490.2,1170.4,490.2z"/>
			<path class="st1" d="M1220.7,355.2h85c11.7,0,21.3-9.6,21.3-21.3v-4.6c0-11.7-9.6-21.3-21.3-21.3h-85c-13,0-23.6,10.6-23.6,23.6
				v0C1197.1,344.6,1207.7,355.2,1220.7,355.2z"/>
			<path class="st1" d="M1216.5,395.7h-66.7c-13,0-23.6,10.6-23.6,23.6v0c0,13,10.6,23.6,23.6,23.6h66.7c11.7,0,21.3-9.6,21.3-21.3
				V417C1237.8,405.3,1228.2,395.7,1216.5,395.7z"/>
			<path class="st1" d="M1047.3,262.6h14.6c11.7,0,21.3-9.6,21.3-21.3v-4.6c0-11.7-9.6-21.3-21.3-21.3h-14.6
				c-13,0-23.6,10.6-23.6,23.6v0C1023.7,252,1034.3,262.6,1047.3,262.6z"/>
		</g>
		<path class="st2" d="M680.4,437.2h79c9.3,0,16.9-7.4,16.9-16.7c0-0.3,0-0.5,0-0.8c-0.4-13-10.7-23.8-23.8-24.7
			c-2.9-0.2-5.7,0.1-8.3,0.8c-1.6-12.6-12.3-22.4-25.3-22.4c-12.6,0-23.1,9.2-25.2,21.2c-3-1-6.2-1.4-9.6-1.1
			c-11.9,1.1-21.2,11-21.5,22.9c-0.1,4.7,1.1,9.1,3.4,12.8C669,434.2,674.5,437.2,680.4,437.2z"/>
		<path class="st3" d="M776.3,419.7c-0.4-13-10.7-23.8-23.8-24.7c-2.9-0.2-5.7,0.1-8.3,0.8c-1.6-12.6-12.3-22.4-25.3-22.4
			c-1.5,0-3,0.1-4.4,0.4c12.9,7.6,21.6,21.7,21.6,37.8c0,9.5-3.1,18.4-8.2,25.6h31.5c9.3,0,16.9-7.4,16.9-16.7
			C776.3,420.2,776.3,420,776.3,419.7z"/>
		<circle class="st4" cx="489.7" cy="248.1" r="12.2"/>
		<circle class="st5" cx="448.3" cy="288.8" r="8"/>
		<circle class="st5" cx="523.2" cy="213.9" r="8"/>
		<circle class="st5" cx="538.8" cy="297.2" r="12.2"/>
		<circle class="st2" cx="427.6" cy="242.9" r="11.2"/>
		<circle class="st4" cx="1093.9" cy="295.7" r="12"/>
		<circle class="st2" cx="1134" cy="336.4" r="7.9"/>
		<circle class="st5" cx="1060.3" cy="262.7" r="7.9"/>
		<circle class="st5" cx="1046.1" cy="339.5" r="11"/>
		<circle class="st5" cx="188.1" cy="439.5" r="12"/>
		<circle class="st6" cx="354" cy="318.7" r="10.6"/>
		<circle class="st5" cx="1169.1" cy="371" r="9.6"/>
		<circle class="st2" cx="971.6" cy="230.6" r="9"/>
		<path class="st5" d="M267.9,611.8v-19.9h-13.5c-1.1-4.6-2.9-8.9-5.3-12.8l9.6-9.6l-14.1-14.1L235,565c-3.9-2.4-8.2-4.2-12.8-5.3
			v-13.5h-19.9v13.5c-4.6,1.1-8.9,2.9-12.8,5.3l-9.6-9.6l-14.1,14.1l9.6,9.6c-2.4,3.9-4.2,8.2-5.3,12.8h-13.5v19.9h13.5
			c1.1,4.6,2.9,8.9,5.3,12.8l-9.6,9.6l14.1,14.1l9.6-9.6c3.9,2.4,8.2,4.2,12.8,5.3v13.5h19.9V644c4.6-1.1,8.9-2.9,12.8-5.3l9.6,9.6
			l14.1-14.1l-9.6-9.6c2.4-3.9,4.2-8.2,5.3-12.8H267.9z M212.2,629.2c-15.1,0-27.4-12.3-27.4-27.4s12.3-27.4,27.4-27.4
			c15.1,0,27.4,12.3,27.4,27.4S227.4,629.2,212.2,629.2z"/>
		<path class="st7" d="M212.2,566.3c-19.6,0-35.5,15.9-35.5,35.5s15.9,35.5,35.5,35.5c19.6,0,35.5-15.9,35.5-35.5
			S231.9,566.3,212.2,566.3z M212.2,629.2c-15.1,0-27.4-12.3-27.4-27.4s12.3-27.4,27.4-27.4c15.1,0,27.4,12.3,27.4,27.4
			S227.4,629.2,212.2,629.2z"/>
		<g>
			<path class="st8" d="M453.5,726.2H153.6"/>
			<path class="st8" d="M1249.2,726.2H949.4"/>
		</g>
		<g>
			<path class="st8" d="M1327,726.2h-50.6"/>
		</g>
		<g>
			<path class="st8" d="M123.6,726.2H73"/>
		</g>
		<g>
			<g>
				<g>
					<path class="st4" d="M833.1,533.8c0-42.3-34.2-77-75.8-77.5c-21.9-0.3-41.7,8.8-55.9,23.5c-14.2-14.7-34-23.8-55.9-23.5
						c-41.6,0.5-75.8,35.2-75.8,77.5c0,91,99.4,138.2,125.4,149c4,1.6,8.4,1.6,12.4,0C733.6,672,833.1,624.8,833.1,533.8z"/>
				</g>
				<path class="st9" d="M757.3,456.3c-4.3-0.1-8.5,0.3-12.7,0.9c9.3,18.8,14.6,40,14.6,62.4c0,67.8-48,124.3-111.9,137.5
					c20,13.4,38.6,21.8,47.8,25.7c4,1.6,8.4,1.6,12.4,0c26.1-10.8,125.5-58,125.5-149C833.1,491.5,798.9,456.8,757.3,456.3z"/>
				<g>
					<path class="st8" d="M833.1,533.8c0-42.3-34.2-77-75.8-77.5c-21.9-0.3-41.7,8.8-55.9,23.5c-14.2-14.7-34-23.8-55.9-23.5
						c-41.6,0.5-75.8,35.2-75.8,77.5c0,91,99.4,138.2,125.4,149c4,1.6,8.4,1.6,12.4,0C733.6,672,833.1,624.8,833.1,533.8z"/>
				</g>
			</g>
			<g>
				<circle class="st10" cx="633.3" cy="505.5" r="19.5"/>
				<circle class="st10" cx="613.4" cy="549.8" r="14.5"/>
			</g>
		</g>
		<g>
			<path class="st6" d="M1204.8,393.7h-84.1c-5.7,0-10.3,4.6-10.3,10.3v150c0,5.7,4.6,10.3,10.3,10.3h84.1c5.7,0,10.3-4.6,10.3-10.3
				v-150C1215.1,398.3,1210.5,393.7,1204.8,393.7z"/>
			<g>
				<path class="st2" d="M1204.8,400.4h-84.1c-1.9,0-3.5,1.6-3.5,3.5v150c0,0.6,0.2,1.2,0.4,1.7l89.8-153.9
					C1206.8,401,1205.9,400.4,1204.8,400.4z"/>
				<path class="st3" d="M1117.7,555.6c0.6,1.1,1.7,1.8,3,1.8h84.1c1.9,0,3.5-1.6,3.5-3.5v-150c0-0.8-0.3-1.6-0.8-2.2L1117.7,555.6z
					"/>
			</g>
			<path class="st8" d="M1204.8,393.7h-84.1c-5.7,0-10.3,4.6-10.3,10.3v150c0,5.7,4.6,10.3,10.3,10.3h84.1c5.7,0,10.3-4.6,10.3-10.3
				v-150C1215.1,398.3,1210.5,393.7,1204.8,393.7z"/>
			<path class="st11" d="M1132.6,393.4l3.5,7.4c1.4,3,4.6,5.2,7.2,5.2h38.8c2.6,0,5.8-2.2,7.2-5.2l3.5-7.4H1132.6z"/>
		</g>
		<g>
			<path class="st12" d="M484.5,325.7h-31.2c-2.7,0-5.3,1.9-5.8,4.3l-2.9,12.6h48.8l-2.9-12.6C489.8,327.6,487.2,325.7,484.5,325.7z
				"/>
			<path class="st13" d="M537.5,343.5H400.4c-2.8,0-5,2.3-5,5v79c0,2.8,2.3,5,5,5h137.1c2.8,0,5-2.3,5-5v-79
				C542.5,345.8,540.3,343.5,537.5,343.5z"/>
			<path class="st14" d="M537.5,420.4H400.4c-2.8,0-5-2.3-5-5v12.2c0,2.8,2.3,5,5,5h137.1c2.8,0,5-2.3,5-5v-12.2
				C542.5,418.1,540.3,420.4,537.5,420.4z"/>
			<path class="st6" d="M542.5,371.9v-23.3c0-2.8-2.3-5-5-5H400.4c-2.8,0-5,2.3-5,5v23.3H542.5z"/>
			<rect x="395.4" y="363.8" class="st15" width="147.1" height="8"/>
			<path class="st8" d="M537.5,343.5H400.4c-2.8,0-5,2.3-5,5v79c0,2.8,2.3,5,5,5h137.1c2.8,0,5-2.3,5-5v-79
				C542.5,345.8,540.3,343.5,537.5,343.5z"/>
			<path class="st8" d="M542.5,371.9v-23.3c0-2.8-2.3-5-5-5H400.4c-2.8,0-5,2.3-5,5v23.3H542.5z"/>
			<g>
				<circle class="st12" cx="469" cy="401.5" r="43.9"/>
				<circle class="st6" cx="469" cy="401.5" r="31.2"/>
				<path class="st16" d="M486.3,375.5c3.2,4.9,5,10.8,5,17.2c-0.1,17.3-14.2,31.1-31.5,31c-6.3-0.1-12.2-2-17.1-5.3
					c5.5,8.5,15.1,14.2,26,14.3c17.3,0.1,31.4-13.7,31.5-31C500.3,390.8,494.8,381.1,486.3,375.5z"/>
				<circle class="st8" cx="469" cy="401.5" r="43.9"/>
				<circle class="st8" cx="469" cy="401.5" r="31.2"/>
				<circle class="st10" cx="460" cy="408.5" r="9.1"/>
				<circle class="st10" cx="474" cy="391.1" r="5.1"/>
			</g>
			<path class="st8" d="M484.5,325.7h-31.2c-2.7,0-5.3,1.9-5.8,4.3l-2.9,12.6h48.8l-2.9-12.6C489.8,327.6,487.2,325.7,484.5,325.7z"
				/>
		</g>
		<path class="st8" d="M680.4,437.2h79c9.3,0,16.9-7.4,16.9-16.7c0-0.3,0-0.5,0-0.8c-0.4-13-10.7-23.8-23.8-24.7
			c-2.9-0.2-5.7,0.1-8.3,0.8c-1.6-12.6-12.3-22.4-25.3-22.4c-12.6,0-23.1,9.2-25.2,21.2c-3-1-6.2-1.4-9.6-1.1
			c-11.9,1.1-21.2,11-21.5,22.9c-0.1,4.7,1.1,9.1,3.4,12.8C669,434.2,674.5,437.2,680.4,437.2z"/>
		<path class="st2" d="M1032.1,693.2h79c9.3,0,16.9-7.4,16.9-16.7c0-0.3,0-0.5,0-0.8c-0.4-13-10.7-23.8-23.8-24.7
			c-2.9-0.2-5.7,0.1-8.3,0.8c-1.6-12.6-12.3-22.4-25.3-22.4c-12.6,0-23.1,9.2-25.2,21.2c-3-1-6.2-1.4-9.6-1.1
			c-11.9,1.1-21.2,11-21.5,22.9c-0.1,4.7,1.1,9.1,3.4,12.8C1020.8,690.2,1026.3,693.2,1032.1,693.2z"/>
		<path class="st3" d="M1128.1,675.7c-0.4-13-10.7-23.8-23.8-24.7c-2.9-0.2-5.7,0.1-8.3,0.8c-1.6-12.6-12.3-22.4-25.3-22.4
			c-1.5,0-3,0.1-4.4,0.4c12.9,7.6,21.6,21.7,21.6,37.8c0,9.5-3.1,18.4-8.2,25.6h31.5c9.3,0,16.9-7.4,16.9-16.7
			C1128.1,676.2,1128.1,675.9,1128.1,675.7z"/>
		<path class="st8" d="M1032.1,693.2h79c9.3,0,16.9-7.4,16.9-16.7c0-0.3,0-0.5,0-0.8c-0.4-13-10.7-23.8-23.8-24.7
			c-2.9-0.2-5.7,0.1-8.3,0.8c-1.6-12.6-12.3-22.4-25.3-22.4c-12.6,0-23.1,9.2-25.2,21.2c-3-1-6.2-1.4-9.6-1.1
			c-11.9,1.1-21.2,11-21.5,22.9c-0.1,4.7,1.1,9.1,3.4,12.8C1020.8,690.2,1026.3,693.2,1032.1,693.2z"/>
		<path class="st2" d="M213.8,514.5h76.9c9,0,16.5-7.2,16.5-16.3c0-0.2,0-0.5,0-0.8c-0.4-12.7-10.5-23.2-23.1-24
			c-2.8-0.2-5.5,0.1-8.1,0.8c-1.5-12.3-12-21.8-24.7-21.8c-12.3,0-22.5,8.9-24.5,20.6c-2.9-1-6.1-1.4-9.4-1.1
			c-11.5,1-20.6,10.7-20.9,22.3c-0.1,4.6,1.1,8.8,3.3,12.4C202.7,511.6,208.1,514.5,213.8,514.5z"/>
		<path class="st3" d="M307.2,497.5c-0.4-12.7-10.5-23.2-23.1-24c-2.8-0.2-5.5,0.1-8.1,0.8c-1.5-12.3-12-21.8-24.7-21.8
			c-1.5,0-2.9,0.1-4.3,0.4c12.6,7.4,21,21.1,21,36.8c0,9.3-3,17.9-8,24.9h30.7c9,0,16.5-7.2,16.5-16.3
			C307.2,498,307.2,497.7,307.2,497.5z"/>
		<path class="st8" d="M213.8,514.5h76.9c9,0,16.5-7.2,16.5-16.3c0-0.2,0-0.5,0-0.8c-0.4-12.7-10.5-23.2-23.1-24
			c-2.8-0.2-5.5,0.1-8.1,0.8c-1.5-12.3-12-21.8-24.7-21.8c-12.3,0-22.5,8.9-24.5,20.6c-2.9-1-6.1-1.4-9.4-1.1
			c-11.5,1-20.6,10.7-20.9,22.3c-0.1,4.6,1.1,8.8,3.3,12.4C202.7,511.6,208.1,514.5,213.8,514.5z"/>
		<g>
			<path class="st2" d="M649.4,363.9v-13.6h-9.2c-0.7-3.1-2-6.1-3.6-8.7l6.5-6.5l-9.6-9.6L627,332c-2.7-1.6-5.6-2.9-8.7-3.6v-9.2
				h-13.6v9.2c-3.1,0.7-6.1,2-8.7,3.6l-6.5-6.5l-9.6,9.6l6.5,6.5c-1.6,2.7-2.9,5.6-3.6,8.7h-9.2v13.6h9.2c0.7,3.1,2,6.1,3.6,8.7
				l-6.5,6.5l9.6,9.6l6.5-6.5c2.7,1.6,5.6,2.9,8.7,3.6v9.2h13.6v-9.2c3.1-0.7,6.1-2,8.7-3.6l6.5,6.5l9.6-9.6l-6.5-6.5
				c1.6-2.7,2.9-5.6,3.6-8.7H649.4z M611.5,371.8c-8.1,0-14.7-6.6-14.7-14.7c0-8.1,6.6-14.7,14.7-14.7c8.1,0,14.7,6.6,14.7,14.7
				C626.2,365.2,619.6,371.8,611.5,371.8z"/>
			<path class="st6" d="M611.5,336.8c-11.2,0-20.3,9.1-20.3,20.3c0,11.2,9.1,20.3,20.3,20.3c11.2,0,20.3-9.1,20.3-20.3
				C631.8,345.9,622.7,336.8,611.5,336.8z M611.5,371.8c-8.1,0-14.7-6.6-14.7-14.7c0-8.1,6.6-14.7,14.7-14.7
				c8.1,0,14.7,6.6,14.7,14.7C626.2,365.2,619.6,371.8,611.5,371.8z"/>
			<circle class="st8" cx="611.5" cy="357.1" r="14.7"/>
			<path class="st8" d="M649.4,363.9v-13.6h-9.2c-0.7-3.1-2-6.1-3.6-8.7l6.5-6.5l-9.6-9.6L627,332c-2.7-1.6-5.6-2.9-8.7-3.6v-9.2
				h-13.5v9.2c-3.1,0.7-6.1,2-8.7,3.6l-6.5-6.5l-9.6,9.6l6.5,6.5c-1.6,2.7-2.9,5.6-3.6,8.7h-9.2v13.6h9.2c0.7,3.1,2,6.1,3.6,8.7
				l-6.5,6.5l9.6,9.6l6.5-6.5c2.7,1.6,5.6,2.9,8.7,3.6v9.2h13.5v-9.2c3.1-0.7,6.1-2,8.7-3.6l6.5,6.5l9.6-9.6l-6.5-6.5
				c1.6-2.7,2.9-5.6,3.6-8.7H649.4z"/>
		</g>
		<g>
			<path class="st2" d="M1229.6,668.6v-15.2h-10.3c-0.8-3.5-2.2-6.8-4.1-9.8l7.3-7.3l-10.8-10.8l-7.3,7.3c-3-1.8-6.3-3.2-9.8-4.1
				v-10.3h-15.2v10.3c-3.5,0.8-6.8,2.2-9.8,4.1l-7.3-7.3l-10.8,10.8l7.3,7.3c-1.8,3-3.2,6.3-4.1,9.8h-10.3v15.2h10.3
				c0.8,3.5,2.2,6.8,4.1,9.8l-7.3,7.3l10.8,10.8l7.3-7.3c3,1.8,6.3,3.2,9.8,4.1v10.3h15.2v-10.3c3.5-0.8,6.8-2.2,9.8-4.1l7.3,7.3
				l10.8-10.8l-7.3-7.3c1.8-3,3.2-6.3,4.1-9.8H1229.6z M1187.1,677.5c-9.1,0-16.5-7.4-16.5-16.5c0-9.1,7.4-16.5,16.5-16.5
				c9.1,0,16.5,7.4,16.5,16.5C1203.6,670.1,1196.2,677.5,1187.1,677.5z"/>
			<path class="st6" d="M1187.1,638.2c-12.6,0-22.8,10.2-22.8,22.8c0,12.6,10.2,22.8,22.8,22.8c12.6,0,22.8-10.2,22.8-22.8
				C1209.9,648.4,1199.7,638.2,1187.1,638.2z M1187.1,677.5c-9.1,0-16.5-7.4-16.5-16.5c0-9.1,7.4-16.5,16.5-16.5
				c9.1,0,16.5,7.4,16.5,16.5C1203.6,670.1,1196.2,677.5,1187.1,677.5z"/>
			<circle class="st8" cx="1187.1" cy="661" r="16.5"/>
			<path class="st8" d="M1229.6,668.6v-15.2h-10.3c-0.8-3.5-2.2-6.8-4.1-9.8l7.3-7.3l-10.8-10.8l-7.3,7.3c-3-1.8-6.3-3.2-9.8-4.1
				v-10.3h-15.2v10.3c-3.5,0.8-6.8,2.2-9.8,4.1l-7.3-7.3l-10.8,10.8l7.3,7.3c-1.8,3-3.2,6.3-4.1,9.8h-10.3v15.2h10.3
				c0.8,3.5,2.2,6.8,4.1,9.8l-7.3,7.3l10.8,10.8l7.3-7.3c3,1.8,6.3,3.2,9.8,4.1v10.3h15.2v-10.3c3.5-0.8,6.8-2.2,9.8-4.1l7.3,7.3
				l10.8-10.8l-7.3-7.3c1.8-3,3.2-6.3,4.1-9.8H1229.6z"/>
		</g>
		<g>
			<path class="st5" d="M736.3,311.5V296h-10.5c-0.8-3.6-2.3-6.9-4.1-10l7.5-7.5l-11-11l-7.5,7.5c-3-1.9-6.4-3.3-10-4.1v-10.5h-15.5
				v10.5c-3.6,0.8-6.9,2.3-10,4.1l-7.5-7.5l-11,11l7.5,7.5c-1.9,3-3.3,6.4-4.1,10h-10.5v15.5h10.5c0.8,3.6,2.3,6.9,4.1,10l-7.5,7.5
				l11,11l7.5-7.5c3,1.9,6.4,3.3,10,4.1v10.5h15.5v-10.5c3.6-0.8,6.9-2.3,10-4.1l7.5,7.5l11-11l-7.5-7.5c1.9-3,3.3-6.4,4.1-10H736.3
				z M692.9,320.6c-9.3,0-16.8-7.5-16.8-16.8c0-9.3,7.5-16.8,16.8-16.8c9.3,0,16.8,7.5,16.8,16.8C709.8,313,702.2,320.6,692.9,320.6
				z"/>
			<path class="st12" d="M692.9,280.5c-12.8,0-23.3,10.4-23.3,23.3c0,12.9,10.4,23.3,23.3,23.3c12.9,0,23.3-10.4,23.3-23.3
				C716.2,290.9,705.8,280.5,692.9,280.5z M692.9,320.6c-9.3,0-16.8-7.5-16.8-16.8c0-9.3,7.5-16.8,16.8-16.8
				c9.3,0,16.8,7.5,16.8,16.8C709.8,313,702.2,320.6,692.9,320.6z"/>
			<circle class="st8" cx="692.9" cy="303.7" r="16.8"/>
			<path class="st8" d="M736.3,311.5V296h-10.5c-0.8-3.6-2.3-6.9-4.1-10l7.5-7.5l-11-11l-7.5,7.5c-3-1.9-6.4-3.3-10-4.1v-10.5h-15.5
				v10.5c-3.6,0.8-6.9,2.3-10,4.1l-7.5-7.5l-11,11l7.5,7.5c-1.9,3-3.3,6.4-4.1,10h-10.5v15.5h10.5c0.8,3.6,2.3,6.9,4.1,10l-7.5,7.5
				l11,11l7.5-7.5c3,1.9,6.4,3.3,10,4.1v10.5h15.5v-10.5c3.6-0.8,6.9-2.3,10-4.1l7.5,7.5l11-11l-7.5-7.5c1.9-3,3.3-6.4,4.1-10H736.3
				z"/>
		</g>
		<path class="st8" d="M267.9,611.8v-19.9h-13.5c-1.1-4.6-2.9-8.9-5.3-12.8l9.6-9.6l-14.1-14.1L235,565c-3.9-2.4-8.2-4.2-12.8-5.3
			v-13.5h-19.9v13.5c-4.6,1.1-8.9,2.9-12.8,5.3l-9.6-9.6l-14.1,14.1l9.6,9.6c-2.4,3.9-4.2,8.2-5.3,12.8h-13.5v19.9h13.5
			c1.1,4.6,2.9,8.9,5.3,12.8l-9.6,9.6l14.1,14.1l9.6-9.6c3.9,2.4,8.2,4.2,12.8,5.3v13.5h19.9V644c4.6-1.1,8.9-2.9,12.8-5.3l9.6,9.6
			l14.1-14.1l-9.6-9.6c2.4-3.9,4.2-8.2,5.3-12.8H267.9z"/>
		<circle class="st8" cx="212.3" cy="601.9" r="15.8"/>
		<circle class="st8" cx="212.3" cy="601.9" r="27.7"/>
		<line class="st8" x1="212.3" y1="585.5" x2="212.3" y2="618.2"/>
		<line class="st8" x1="197.2" y1="601.9" x2="227.3" y2="601.9"/>
		<circle class="st11" cx="1187.1" cy="661" r="7.9"/>
		<g>
			<circle class="st11" cx="514.5" cy="470.2" r="4.9"/>
			<circle class="st11" cx="541.3" cy="470.2" r="4.9"/>
			<circle class="st11" cx="567.4" cy="470.2" r="4.9"/>
		</g>
		<polygon class="st11" points="567.3,626.7 555.9,616 567.1,605.5 554.2,605.5 543,616 554.4,626.7 		"/>
		<polygon class="st11" points="491,478.4 479.6,467.7 490.8,457.2 477.9,457.2 466.7,467.7 478.1,478.4 		"/>
		<polygon class="st11" points="543.2,626.7 531.9,616 543,605.5 530.1,605.5 519,616 530.3,626.7 		"/>
		<polygon class="st11" points="345.3,569.6 334,558.9 345.1,548.4 332.2,548.4 321.1,558.9 332.4,569.6 		"/>
		<polygon class="st11" points="369.8,569.6 358.4,558.9 369.6,548.4 356.7,548.4 345.5,558.9 356.9,569.6 		"/>
		<polygon class="st11" points="396.5,569.6 385.2,558.9 396.3,548.4 383.4,548.4 372.3,558.9 383.6,569.6 		"/>
		<g>
			<polyline class="st8" points="829.5,566.1 920.8,566.1 954.4,599.7 1123.8,599.7 			"/>
			<polyline class="st8" points="790.7,629.3 879.9,629.3 896.3,659.9 965.6,659.9 			"/>
			<polyline class="st8" points="816.7,486.5 876.5,486.5 895.6,467.5 975.2,467.5 			"/>
			<polyline class="st8" points="977.9,599.7 1002.9,574.8 1061.5,574.8 			"/>
			<polyline class="st8" points="912.6,466.4 936.1,509.3 1015.6,509.3 			"/>
			<circle class="st8" cx="1026.8" cy="510" r="13.3"/>
			<circle class="st8" cx="1135.7" cy="600.1" r="13.3"/>
			<circle class="st8" cx="986.7" cy="467.4" r="10.3"/>
			<circle class="st8" cx="975.2" cy="539.8" r="10.3"/>
			<circle class="st8" cx="932.7" cy="609.9" r="8.9"/>
			<circle class="st8" cx="1071" cy="574.2" r="10.3"/>
			<circle class="st8" cx="974.4" cy="660.2" r="10.3"/>
			<polyline class="st8" points="866.1,565.1 891.1,540.1 967,540.1 			"/>
			<polyline class="st8" points="858.5,629.7 878.7,609.5 924.3,609.5 			"/>
			<circle class="st11" cx="914.1" cy="452" r="4.9"/>
			<g>
				<circle class="st11" cx="1000.1" cy="612.7" r="4.9"/>
				<circle class="st11" cx="1026.8" cy="612.7" r="4.9"/>
				<circle class="st11" cx="1053" cy="612.7" r="4.9"/>
			</g>
			<polygon class="st11" points="1003,537.2 1014.4,547.9 1003.2,558.4 1016.1,558.4 1027.3,547.9 1015.9,537.2 			"/>
			<polygon class="st11" points="1027.1,537.2 1038.4,547.9 1027.3,558.4 1040.2,558.4 1051.3,547.9 1040,537.2 			"/>
			<polygon class="st11" points="894.7,507.9 906.1,518.6 894.9,529.1 907.8,529.1 919,518.6 907.6,507.9 			"/>
			<polygon class="st11" points="846.4,641.8 857.8,652.5 846.6,663 859.5,663 870.7,652.5 859.3,641.8 			"/>
		</g>
		<polyline class="st8" points="585.1,486.5 443.3,486.5 424.3,467.5 350.5,467.5 		"/>
		<polyline class="st8" points="536.7,487 524.9,509.3 380.6,509.3 		"/>
		<circle class="st8" cx="372.8" cy="510" r="10.3"/>
		<circle class="st8" cx="300.7" cy="583.1" r="13.3"/>
		<circle class="st8" cx="447.9" cy="538.9" r="11.9"/>
		<circle class="st8" cx="340.6" cy="467.4" r="10.3"/>
		<circle class="st8" cx="426" cy="631.9" r="7.6"/>
		<circle class="st8" cx="462.5" cy="595.8" r="8.9"/>
		<circle class="st8" cx="381.7" cy="656.1" r="10.3"/>
		<polyline class="st8" points="484.8,658.2 457.7,632.1 431.9,632.1 		"/>
		<polyline class="st8" points="542.8,566.6 516.5,596.2 470.9,596.2 		"/>
		<circle class="st11" cx="366" cy="596" r="4.9"/>
		<circle class="st11" cx="339.3" cy="596" r="4.9"/>
		<polyline class="st8" points="572.9,565.4 418.8,565.4 401.5,582.7 313.4,582.7 		"/>
		<line class="st8" x1="459" y1="538.9" x2="568.3" y2="538.9"/>
		<polyline class="st8" points="621.9,637.5 507.9,637.5 493.7,658.6 388.9,658.6 		"/>
		<text transform="matrix(1 0 0 1 496.7246 744.3047)"><tspan x="0" y="0" class="st11 st17 st18 st19">IN </tspan><tspan x="80.3" y="0" class="st11 st17 st18 st20">L</tspan><tspan x="111.9" y="0" class="st11 st17 st18 st21">O</tspan><tspan x="152.4" y="0" class="st11 st17 st18 st19">VE W</tspan><tspan x="294.6" y="0" class="st11 st17 st18 st21">I</tspan><tspan x="314.2" y="0" class="st11 st17 st18 st19">TH</tspan></text>
		<text transform="matrix(1 0 0 1 482.1694 806.0947)"><tspan x="0" y="0" class="st11 st17 st22 st19">TECHNO</tspan><tspan x="259.9" y="0" class="st11 st17 st22 st20">L</tspan><tspan x="294.8" y="0" class="st11 st17 st22 st19">OGY</tspan></text>
		<g>
			<path class="st5" d="M987,387.5H821.9c-6.3,0-11.3-5.1-11.3-11.3V272c0-6.3,5.1-11.3,11.3-11.3H987c6.3,0,11.3,5.1,11.3,11.3
				v104.1C998.3,382.4,993.3,387.5,987,387.5z"/>
			<polygon class="st2" points="821,273.3 821,364.2 984.8,273.3 			"/>
			<polygon class="st3" points="821,364.2 821,365.7 987.9,365.7 987.9,273.3 984.8,273.3 			"/>
			<rect x="879.3" y="387.9" class="st12" width="50.4" height="28.2"/>
			<rect x="912.7" y="387.9" class="st23" width="16.9" height="28.2"/>
			<path class="st5" d="M945.3,416.2h-81.7c-2.8,0-5.1,2.3-5.1,5.1l0,0c0,2.8,2.3,5.1,5.1,5.1h81.7c2.8,0,5.1-2.3,5.1-5.1l0,0
				C950.4,418.5,948.1,416.2,945.3,416.2z"/>
			<path class="st24" d="M810.6,376.6c0.2,6.1,5.2,10.9,11.3,10.9H987c6.1,0,11.1-4.9,11.3-10.9H810.6z"/>
			<path class="st8" d="M987,387.5H821.9c-6.3,0-11.3-5.1-11.3-11.3V272c0-6.3,5.1-11.3,11.3-11.3H987c6.3,0,11.3,5.1,11.3,11.3
				v104.1C998.3,382.4,993.3,387.5,987,387.5z"/>
			
				<rect x="858.2" y="236.1" transform="matrix(-1.836970e-16 1 -1 -1.836970e-16 1223.9546 -584.9324)" class="st8" width="92.4" height="166.9"/>
			<circle class="st10" cx="904.4" cy="376.3" r="5"/>
			<rect x="879.3" y="387.9" class="st8" width="50.4" height="28.2"/>
			<path class="st8" d="M945.3,416.2h-81.7c-2.8,0-5.1,2.3-5.1,5.1l0,0c0,2.8,2.3,5.1,5.1,5.1h81.7c2.8,0,5.1-2.3,5.1-5.1l0,0
				C950.4,418.5,948.1,416.2,945.3,416.2z"/>
		</g>
		<g>
			<path class="st4" d="M343.5,413.3c4.7-5.9,7.5-13.3,7.5-21.4c0-18.9-15.3-34.2-34.2-34.2c-18.9,0-34.2,15.3-34.2,34.2
				c0,18.9,15.3,34.2,34.2,34.2c6.6,0,12.7-1.9,17.9-5.1l12.4,5.5L343.5,413.3z"/>
			<path class="st8" d="M343.5,413.3c4.7-5.9,7.5-13.3,7.5-21.4c0-18.9-15.3-34.2-34.2-34.2c-18.9,0-34.2,15.3-34.2,34.2
				c0,18.9,15.3,34.2,34.2,34.2c6.6,0,12.7-1.9,17.9-5.1l12.4,5.5L343.5,413.3z"/>
			<path class="st2" d="M244.9,399.9c-5.9-7.3-9.4-16.5-9.4-26.6c0-23.5,19-42.5,42.5-42.5s42.5,19,42.5,42.5
				c0,23.5-19,42.5-42.5,42.5c-8.2,0-15.8-2.3-22.3-6.3l-15.4,6.9L244.9,399.9z"/>
			<path class="st8" d="M244.9,399.9c-5.9-7.3-9.4-16.5-9.4-26.6c0-23.5,19-42.5,42.5-42.5s42.5,19,42.5,42.5
				c0,23.5-19,42.5-42.5,42.5c-8.2,0-15.8-2.3-22.3-6.3l-15.4,6.9L244.9,399.9z"/>
			<g>
				<circle class="st10" cx="260.5" cy="375" r="4.5"/>
				<circle class="st10" cx="279.2" cy="375" r="4.5"/>
				<circle class="st10" cx="296.7" cy="375" r="4.5"/>
			</g>
		</g>
		<g>
			<path class="st4" d="M1018.5,399.2v52.5h55.7v-52.5H1018.5z M1058.9,437.3h-25.1v-23.6h25.1V437.3z"/>
			<path class="st25" d="M1027.1,407.3v36.3h38.5v-36.3H1027.1z M1058.9,437.3h-25.1v-23.6h25.1V437.3z"/>
			<rect x="1018.5" y="399.2" class="st8" width="55.7" height="52.5"/>
			<rect x="1033.8" y="413.6" class="st8" width="25.1" height="23.6"/>
			<g>
				<line class="st8" x1="1004.6" y1="411.1" x2="1018" y2="411.1"/>
				<line class="st8" x1="1004.6" y1="426.6" x2="1018" y2="426.6"/>
				<line class="st8" x1="1004.6" y1="441.7" x2="1018" y2="441.7"/>
			</g>
			<g>
				<line class="st8" x1="1075.1" y1="411.1" x2="1088.5" y2="411.1"/>
				<line class="st8" x1="1075.1" y1="426.6" x2="1088.5" y2="426.6"/>
				<line class="st8" x1="1075.1" y1="441.7" x2="1088.5" y2="441.7"/>
			</g>
			<g>
				<line class="st8" x1="1031.3" y1="465.9" x2="1031.3" y2="452.5"/>
				<line class="st8" x1="1046.8" y1="465.9" x2="1046.8" y2="452.5"/>
				<line class="st8" x1="1061.8" y1="465.9" x2="1061.8" y2="452.5"/>
			</g>
			<g>
				<line class="st8" x1="1031.3" y1="397.9" x2="1031.3" y2="384.5"/>
				<line class="st8" x1="1046.8" y1="397.9" x2="1046.8" y2="384.5"/>
				<line class="st8" x1="1061.8" y1="397.9" x2="1061.8" y2="384.5"/>
			</g>
		</g>
		<g>
			<path class="st4" d="M284.9,648v52.5h55.7V648H284.9z M325.3,686.1h-25.1v-23.6h25.1V686.1z"/>
			<path class="st25" d="M293.6,656.2v36.3h38.5v-36.3H293.6z M325.3,686.1h-25.1v-23.6h25.1V686.1z"/>
			<rect x="284.9" y="648" class="st8" width="55.7" height="52.5"/>
			<rect x="300.3" y="662.5" class="st8" width="25.1" height="23.6"/>
			<g>
				<line class="st8" x1="271.1" y1="660" x2="284.5" y2="660"/>
				<line class="st8" x1="271.1" y1="675.5" x2="284.5" y2="675.5"/>
				<line class="st8" x1="271.1" y1="690.5" x2="284.5" y2="690.5"/>
			</g>
			<g>
				<line class="st8" x1="341.5" y1="660" x2="354.9" y2="660"/>
				<line class="st8" x1="341.5" y1="675.5" x2="354.9" y2="675.5"/>
				<line class="st8" x1="341.5" y1="690.5" x2="354.9" y2="690.5"/>
			</g>
			<g>
				<line class="st8" x1="297.7" y1="714.8" x2="297.7" y2="701.4"/>
				<line class="st8" x1="313.3" y1="714.8" x2="313.3" y2="701.4"/>
				<line class="st8" x1="328.3" y1="714.8" x2="328.3" y2="701.4"/>
			</g>
			<g>
				<line class="st8" x1="297.7" y1="646.7" x2="297.7" y2="633.4"/>
				<line class="st8" x1="313.3" y1="646.7" x2="313.3" y2="633.4"/>
				<line class="st8" x1="328.3" y1="646.7" x2="328.3" y2="633.4"/>
			</g>
		</g>
		<circle class="st8" cx="489.7" cy="248.1" r="12.2"/>
		<circle class="st8" cx="448.3" cy="288.8" r="8"/>
		<circle class="st8" cx="523.2" cy="213.9" r="8"/>
		<circle class="st8" cx="538.8" cy="297.2" r="12.2"/>
		<line class="st8" x1="518.5" y1="219.3" x2="499.5" y2="238.3"/>
		<line class="st8" x1="481.1" y1="256.6" x2="454.7" y2="283"/>
		<line class="st8" x1="499.6" y1="258" x2="531.3" y2="289.7"/>
		<circle class="st8" cx="427.6" cy="242.9" r="11.2"/>
		<line class="st8" x1="478.6" y1="242.9" x2="437.4" y2="242.9"/>
		<circle class="st8" cx="1093.9" cy="295.7" r="12"/>
		<circle class="st8" cx="188.1" cy="439.5" r="12"/>
		<circle class="st8" cx="354" cy="318.7" r="10.6"/>
		<circle class="st6" cx="597.9" cy="426.5" r="10.9"/>
		<circle class="st8" cx="597.9" cy="426.5" r="10.9"/>
		<circle class="st8" cx="1134" cy="336.4" r="7.9"/>
		<circle class="st8" cx="1169.1" cy="371" r="9.6"/>
		<circle class="st4" cx="774.2" cy="241.2" r="9.2"/>
		<circle class="st8" cx="774.2" cy="241.2" r="9.2"/>
		<circle class="st5" cx="984.8" cy="700.6" r="9.4"/>
		<circle class="st8" cx="984.8" cy="700.6" r="9.4"/>
		<circle class="st2" cx="408.5" cy="695.1" r="12"/>
		<circle class="st8" cx="408.5" cy="695.1" r="12"/>
		<circle class="st8" cx="971.6" cy="230.6" r="9"/>
		<circle class="st5" cx="597.9" cy="250.9" r="11.8"/>
		<circle class="st8" cx="597.9" cy="250.9" r="11.8"/>
		<circle class="st8" cx="1060.3" cy="262.7" r="7.9"/>
		<line class="st8" x1="1065.6" y1="267.4" x2="1084.3" y2="286"/>
		<line class="st8" x1="1102.4" y1="304.1" x2="1128.3" y2="330"/>
		<circle class="st8" cx="1046.1" cy="339.5" r="11"/>
		<line class="st8" x1="1085.4" y1="303.1" x2="1053.4" y2="331.2"/>
		<polygon class="st2" points="789.3,328.3 773.4,304.1 757.5,328.3 		"/>
		<polygon class="st2" points="1260.3,565.3 1246,543.5 1231.6,565.3 		"/>
		<polygon class="st8" points="789.3,328.3 773.4,304.1 757.5,328.3 		"/>
		<g>
			<polygon class="st4" points="789.3,370.7 773.4,346.6 757.5,370.7 			"/>
			<polygon class="st8" points="789.3,370.7 773.4,346.6 757.5,370.7 			"/>
		</g>
		<polygon class="st8" points="1260.3,565.3 1246,543.5 1231.6,565.3 		"/>
		<g>
			<polygon class="st5" points="1260.3,605.5 1246,583.7 1231.6,605.5 			"/>
			<polygon class="st8" points="1260.3,605.5 1246,583.7 1231.6,605.5 			"/>
		</g>
		<g>
			<g>
				<polygon class="st3" points="250.7,700.5 236.4,678.7 222,700.5 				"/>
			</g>
			<g>
				<polygon class="st8" points="250.7,700.5 236.4,678.7 222,700.5 				"/>
			</g>
		</g>
	</g>
</g>
</svg>
