<?xml version="1.0" encoding="UTF-8"?>
<svg xmlns="http://www.w3.org/2000/svg" xmlns:xlink="http://www.w3.org/1999/xlink" viewBox="0 0 60 60" width="60px" height="60px">
<g id="surface51938683">
<path style=" stroke:none;fill-rule:nonzero;fill:rgb(40.000001%,74.509805%,91.764706%);fill-opacity:1;" d="M 0.00390625 43.800781 L 2.402344 43.800781 L 2.402344 34.945312 L 5.734375 42.515625 C 6.148438 43.460938 6.710938 43.792969 7.8125 43.792969 C 8.917969 43.792969 9.457031 43.460938 9.867188 42.515625 L 13.203125 35.140625 L 13.203125 43.800781 L 15.601562 43.800781 L 15.601562 34.730469 C 15.601562 33.859375 15.257812 33.433594 14.542969 33.21875 C 12.832031 32.679688 11.683594 33.144531 11.167969 34.308594 L 7.746094 42.007812 L 4.4375 34.308594 C 3.9375 33.144531 2.769531 32.679688 1.0625 33.21875 C 0.347656 33.433594 0 33.855469 0 34.726562 L 0 43.800781 Z M 0.00390625 43.800781 "/>
<path style=" stroke:none;fill-rule:nonzero;fill:rgb(40.000001%,74.509805%,91.764706%);fill-opacity:1;" d="M 16.800781 36.601562 L 19.203125 36.601562 L 19.203125 41.671875 C 19.183594 41.921875 19.28125 42.582031 20.4375 42.601562 C 21.027344 42.609375 23.964844 42.601562 24 42.601562 L 24 36.601562 L 26.402344 36.601562 C 26.410156 36.601562 26.402344 44.0625 26.402344 44.09375 C 26.414062 45.933594 24.117188 46.171875 23.058594 46.203125 L 16.800781 46.203125 L 16.800781 45 C 16.816406 45 22.785156 45.003906 22.804688 45 C 24.164062 44.859375 24.003906 44.109375 24.003906 43.882812 L 24.003906 43.800781 L 20.238281 43.800781 C 18.148438 43.78125 16.820312 42.863281 16.804688 41.8125 C 16.800781 41.714844 16.847656 36.644531 16.800781 36.601562 Z M 16.800781 36.601562 "/>
<path style=" stroke:none;fill-rule:nonzero;fill:rgb(100%,61.960787%,30.980393%);fill-opacity:1;" d="M 27.601562 43.800781 L 33.609375 43.800781 C 34.398438 43.800781 35.164062 43.636719 35.769531 43.351562 C 36.78125 42.886719 37.199219 42.257812 37.199219 41.429688 L 37.199219 39.722656 C 37.199219 37.875 34.914062 37.800781 33.601562 37.800781 L 31.199219 37.800781 C 30.257812 37.800781 30.113281 37.230469 30 36.601562 L 30 35.402344 C 30.113281 34.921875 30.324219 34.277344 31.152344 34.203125 C 32.121094 34.203125 37.199219 34.203125 37.199219 34.203125 L 37.199219 33 L 31.492188 33 C 30.546875 33 27.597656 33.113281 27.597656 35.402344 L 27.597656 36.886719 C 27.597656 37.933594 28.519531 38.789062 30.523438 39 C 30.75 39.015625 30.972656 39.03125 31.199219 39.03125 C 31.199219 39.03125 33.53125 38.984375 33.597656 39 C 34.949219 39 34.796875 40.050781 34.796875 40.199219 L 34.796875 41.398438 C 34.796875 41.566406 34.761719 42.601562 33.582031 42.601562 C 33.492188 42.601562 27.597656 42.601562 27.597656 42.601562 L 27.597656 43.800781 Z M 27.601562 43.800781 "/>
<path style=" stroke:none;fill-rule:nonzero;fill:rgb(100%,61.960787%,30.980393%);fill-opacity:1;" d="M 50.398438 41.351562 C 50.398438 42.796875 51.21875 43.609375 53.390625 43.773438 C 53.59375 43.789062 53.796875 43.800781 54 43.800781 L 60 43.800781 L 60 42.601562 L 54.457031 42.601562 C 53.21875 42.601562 52.800781 42.078125 52.800781 41.335938 L 52.800781 33 L 50.398438 33 Z M 50.398438 41.351562 "/>
<path style=" stroke:none;fill-rule:nonzero;fill:rgb(100%,61.960787%,30.980393%);fill-opacity:1;" d="M 38.378906 41.402344 L 38.378906 35.402344 C 38.378906 34.125 39.003906 33.246094 40.773438 33 L 46.578125 33 C 48.351562 33.246094 49.179688 34.125 49.179688 35.402344 L 49.179688 41.378906 C 49.179688 42.414062 48.910156 42.96875 48.035156 43.328125 L 49.894531 45 L 47.195312 45 L 45.859375 43.800781 L 44.285156 43.800781 L 41.617188 43.816406 C 41.230469 43.816406 40.824219 43.761719 40.375 43.640625 C 39.03125 43.273438 38.378906 42.566406 38.378906 41.402344 Z M 40.78125 41.402344 C 40.902344 41.984375 41.371094 42.601562 42.203125 42.601562 L 44.535156 42.601562 L 43.199219 41.402344 L 45.917969 41.402344 L 46.566406 42.003906 C 46.566406 42.003906 46.800781 41.8125 46.800781 41.402344 C 46.800781 40.988281 46.78125 35.402344 46.78125 35.402344 C 46.65625 34.859375 46.109375 34.203125 45.296875 34.203125 L 42.207031 34.203125 C 41.269531 34.203125 40.78125 34.886719 40.78125 35.523438 Z M 40.78125 41.402344 "/>
<path style=" stroke:none;fill-rule:nonzero;fill:rgb(40.000001%,74.509805%,91.764706%);fill-opacity:1;" d="M 57.75 31.734375 C 56.460938 31.703125 55.476562 31.820312 54.636719 32.175781 C 54.394531 32.277344 54.015625 32.277344 53.976562 32.578125 C 54.105469 32.714844 54.125 32.921875 54.230469 33.089844 C 54.429688 33.417969 54.769531 33.851562 55.074219 34.078125 C 55.40625 34.328125 55.746094 34.597656 56.101562 34.8125 C 56.730469 35.199219 57.433594 35.417969 58.042969 35.800781 C 58.398438 36.027344 58.753906 36.316406 59.105469 36.570312 C 59.277344 36.699219 59.390625 36.894531 59.617188 36.976562 C 59.617188 36.960938 59.617188 36.953125 59.617188 36.9375 C 59.5 36.789062 59.46875 36.582031 59.359375 36.425781 C 59.203125 36.265625 59.042969 36.109375 58.882812 35.949219 C 58.417969 35.332031 57.828125 34.789062 57.199219 34.335938 C 56.699219 33.976562 55.578125 33.492188 55.367188 32.910156 C 55.355469 32.894531 55.34375 32.886719 55.328125 32.871094 C 55.683594 32.832031 56.101562 32.703125 56.425781 32.613281 C 56.980469 32.46875 57.46875 32.507812 58.039062 32.359375 C 58.296875 32.285156 58.550781 32.210938 58.808594 32.140625 C 58.808594 32.089844 58.808594 32.042969 58.808594 31.992188 C 58.519531 31.699219 58.3125 31.308594 58 31.039062 C 57.179688 30.339844 56.285156 29.644531 55.363281 29.0625 C 54.851562 28.738281 54.21875 28.527344 53.679688 28.253906 C 53.496094 28.164062 53.175781 28.113281 53.054688 27.960938 C 52.769531 27.601562 52.617188 27.140625 52.398438 26.71875 C 51.9375 25.832031 51.484375 24.863281 51.078125 23.933594 C 50.800781 23.296875 50.617188 22.671875 50.273438 22.101562 C 48.609375 19.367188 46.816406 17.714844 44.046875 16.09375 C 43.453125 15.746094 42.742188 15.609375 41.992188 15.433594 C 41.589844 15.410156 41.1875 15.382812 40.78125 15.359375 C 40.535156 15.253906 40.28125 14.953125 40.046875 14.808594 C 39.128906 14.226562 36.773438 12.964844 36.09375 14.625 C 35.664062 15.671875 36.734375 16.695312 37.117188 17.226562 C 37.386719 17.597656 37.734375 18.015625 37.925781 18.4375 C 38.050781 18.710938 38.074219 18.988281 38.179688 19.277344 C 38.449219 19.996094 38.867188 20.8125 39.214844 21.476562 C 39.386719 21.8125 39.578125 22.167969 39.800781 22.464844 C 39.933594 22.648438 40.167969 22.730469 40.203125 23.015625 C 39.976562 23.332031 39.964844 23.824219 39.835938 24.226562 C 39.265625 26.03125 39.480469 28.277344 40.3125 29.609375 C 40.570312 30.019531 41.171875 30.902344 42 30.5625 C 42.722656 30.269531 42.5625 29.355469 42.765625 28.546875 C 42.8125 28.367188 42.785156 28.234375 42.878906 28.109375 C 42.878906 28.121094 42.878906 28.132812 42.878906 28.148438 C 43.097656 28.585938 43.316406 29.027344 43.539062 29.464844 C 44.027344 30.253906 44.890625 31.074219 45.625 31.628906 C 46.003906 31.917969 46.304688 32.414062 46.796875 32.582031 C 46.796875 32.570312 46.796875 32.558594 46.796875 32.542969 C 46.785156 32.542969 46.773438 32.542969 46.761719 32.542969 C 46.664062 32.394531 46.515625 32.332031 46.394531 32.214844 C 46.109375 31.933594 45.789062 31.582031 45.550781 31.261719 C 44.882812 30.355469 44.292969 29.363281 43.757812 28.328125 C 43.5 27.835938 43.277344 27.292969 43.058594 26.792969 C 42.976562 26.597656 42.976562 26.304688 42.804688 26.203125 C 42.566406 26.574219 42.21875 26.871094 42.035156 27.304688 C 41.742188 27.996094 41.703125 28.84375 41.597656 29.722656 C 41.53125 29.742188 41.558594 29.730469 41.523438 29.757812 C 41.011719 29.632812 40.832031 29.109375 40.640625 28.660156 C 40.164062 27.519531 40.074219 25.683594 40.496094 24.371094 C 40.605469 24.03125 41.097656 22.964844 40.898438 22.648438 C 40.804688 22.335938 40.488281 22.15625 40.316406 21.917969 C 40.097656 21.621094 39.878906 21.230469 39.730469 20.890625 C 39.335938 20 38.964844 18.96875 38.550781 18.070312 C 38.351562 17.640625 38.019531 17.203125 37.742188 16.824219 C 37.441406 16.402344 37.097656 16.089844 36.863281 15.578125 C 36.78125 15.398438 36.667969 15.105469 36.789062 14.917969 C 36.828125 14.792969 36.886719 14.738281 37.011719 14.699219 C 37.222656 14.535156 37.8125 14.753906 38.035156 14.84375 C 38.625 15.089844 39.113281 15.320312 39.609375 15.652344 C 39.851562 15.808594 40.089844 16.117188 40.378906 16.203125 C 40.488281 16.203125 40.601562 16.203125 40.710938 16.203125 C 41.226562 16.320312 41.804688 16.238281 42.285156 16.386719 C 43.136719 16.644531 43.898438 17.046875 44.59375 17.484375 C 46.703125 18.816406 48.429688 20.714844 49.613281 22.980469 C 49.800781 23.34375 49.886719 23.691406 50.050781 24.078125 C 50.390625 24.859375 50.816406 25.660156 51.148438 26.421875 C 51.484375 27.183594 51.8125 27.953125 52.285156 28.585938 C 52.535156 28.917969 53.5 29.097656 53.933594 29.28125 C 54.242188 29.414062 54.742188 29.546875 55.035156 29.722656 C 55.589844 30.054688 56.125 30.453125 56.644531 30.820312 C 56.910156 31.003906 57.707031 31.40625 57.75 31.734375 Z M 57.75 31.734375 "/>
<path style=" stroke:none;fill-rule:nonzero;fill:rgb(40.000001%,74.509805%,91.764706%);fill-opacity:1;" d="M 41.371094 17.777344 C 41.105469 17.773438 40.914062 17.808594 40.710938 17.851562 C 40.710938 17.863281 40.710938 17.875 40.710938 17.890625 C 40.726562 17.890625 40.734375 17.890625 40.75 17.890625 C 40.878906 18.152344 41.105469 18.324219 41.261719 18.550781 C 41.386719 18.804688 41.507812 19.0625 41.628906 19.320312 C 41.640625 19.304688 41.652344 19.296875 41.664062 19.28125 C 41.890625 19.121094 41.996094 18.867188 41.996094 18.476562 C 41.902344 18.378906 41.890625 18.261719 41.8125 18.144531 C 41.707031 17.992188 41.503906 17.90625 41.371094 17.777344 Z M 41.371094 17.777344 "/>
</g>
</svg>
