<?xml version="1.0"?>
<svg xmlns="http://www.w3.org/2000/svg" xmlns:xlink="http://www.w3.org/1999/xlink" xmlns:svgjs="http://svgjs.com/svgjs" version="1.1" width="512" height="512" x="0" y="0" viewBox="0 0 60 60" style="enable-background:new 0 0 512 512" xml:space="preserve" class=""><g><g xmlns="http://www.w3.org/2000/svg" id="Page-1" fill="none" fill-rule="evenodd"><g id="008---AR-Visor" fill="rgb(0,0,0)" fill-rule="nonzero"><path id="Shape" d="m20.673 19.8c-.0536544-.259808-.208347-.4876488-.4300295-.633374-.2216825-.1457253-.4921854-.1973913-.7519705-.143626-1.234112.2536464-2.3597523.8823006-3.223 1.8-.1712341.1839704-.2669156.4256734-.268.677v1.5c0 .5522847.4477153 1 1 1s1-.4477153 1-1v-1.08c.5409655-.4731986 1.1957518-.7974901 1.9-.941.5379875-.1136423.8832965-.6403166.773-1.179z" fill="#20c997" data-original="#000000" style="" class=""/><path id="Shape" d="m1 11c.55228475 0 1-.4477153 1-1v-7c0-.55228475.44771525-1 1-1h7c.5522847 0 1-.44771525 1-1s-.4477153-1-1-1h-7c-1.65685425 0-3 1.34314575-3 3v7c0 .5522847.44771525 1 1 1z" fill="#20c997" data-original="#000000" style="" class=""/><path id="Shape" d="m57 0h-7c-.5522847 0-1 .44771525-1 1s.4477153 1 1 1h7c.5522847 0 1 .44771525 1 1v7c0 .5522847.4477153 1 1 1s1-.4477153 1-1v-7c0-1.65685425-1.3431458-3-3-3z" fill="#20c997" data-original="#000000" style="" class=""/><path id="Shape" d="m3 48h7c.5522847 0 1-.4477153 1-1s-.4477153-1-1-1h-7c-.55228475 0-1-.4477153-1-1v-7c0-.5522847-.44771525-1-1-1s-1 .4477153-1 1v7c0 1.6568542 1.34314575 3 3 3z" fill="#20c997" data-original="#000000" style="" class=""/><path id="Shape" d="m59 37c-.5522847 0-1 .4477153-1 1v7c0 .5522847-.4477153 1-1 1h-7c-.5522847 0-1 .4477153-1 1s.4477153 1 1 1h7c1.6568542 0 3-1.3431458 3-3v-7c0-.5522847-.4477153-1-1-1z" fill="#20c997" data-original="#000000" style="" class=""/><path id="Shape" d="m5 6h1c.55228475 0 1-.44771525 1-1s-.44771525-1-1-1h-1c-.55228475 0-1 .44771525-1 1s.44771525 1 1 1z" fill="#20c997" data-original="#000000" style="" class=""/><path id="Shape" d="m9 5c0 .55228475.44771525 1 1 1h4c.5522847 0 1-.44771525 1-1s-.4477153-1-1-1h-4c-.55228475 0-1 .44771525-1 1z" fill="#20c997" data-original="#000000" style="" class=""/><path id="Shape" d="m12 9c0-.55228475-.4477153-1-1-1h-6c-.55228475 0-1 .44771525-1 1s.44771525 1 1 1h6c.5522847 0 1-.44771525 1-1z" fill="#20c997" data-original="#000000" style="" class=""/><path id="Shape" d="m55 6c.5522847 0 1-.44771525 1-1s-.4477153-1-1-1h-1c-.5522847 0-1 .44771525-1 1s.4477153 1 1 1z" fill="#20c997" data-original="#000000" style="" class=""/><path id="Shape" d="m46 6h4c.5522847 0 1-.44771525 1-1s-.4477153-1-1-1h-4c-.5522847 0-1 .44771525-1 1s.4477153 1 1 1z" fill="#20c997" data-original="#000000" style="" class=""/><path id="Shape" d="m48 9c0 .55228475.4477153 1 1 1h6c.5522847 0 1-.44771525 1-1s-.4477153-1-1-1h-6c-.5522847 0-1 .44771525-1 1z" fill="#20c997" data-original="#000000" style="" class=""/><path id="Shape" d="m5 42c-.55228475 0-1 .4477153-1 1s.44771525 1 1 1h1c.55228475 0 1-.4477153 1-1s-.44771525-1-1-1z" fill="#20c997" data-original="#000000" style="" class=""/><path id="Shape" d="m9 43c0 .5522847.44771525 1 1 1h4c.5522847 0 1-.4477153 1-1s-.4477153-1-1-1h-4c-.55228475 0-1 .4477153-1 1z" fill="#20c997" data-original="#000000" style="" class=""/><path id="Shape" d="m11 38h-6c-.55228475 0-1 .4477153-1 1s.44771525 1 1 1h6c.5522847 0 1-.4477153 1-1s-.4477153-1-1-1z" fill="#20c997" data-original="#000000" style="" class=""/><path id="Shape" d="m55 42h-1c-.5522847 0-1 .4477153-1 1s.4477153 1 1 1h1c.5522847 0 1-.4477153 1-1s-.4477153-1-1-1z" fill="#20c997" data-original="#000000" style="" class=""/><path id="Shape" d="m46 42c-.5522847 0-1 .4477153-1 1s.4477153 1 1 1h4c.5522847 0 1-.4477153 1-1s-.4477153-1-1-1z" fill="#20c997" data-original="#000000" style="" class=""/><path id="Shape" d="m55 38h-6c-.5522847 0-1 .4477153-1 1s.4477153 1 1 1h6c.5522847 0 1-.4477153 1-1s-.4477153-1-1-1z" fill="#20c997" data-original="#000000" style="" class=""/><path id="Shape" d="m55.682 53.629c-5.4123933-.7026575-10.7027509-2.1447788-15.723-4.286-.3120283-1.6330244-.4068494-3.300127-.282-4.958 2.6836172-3.1989293 4.207076-7.2110916 4.323-11.385 0-.144.013-.285.018-.428 3.189-1.152 4.686-5.307 4.222-11.858-.0880903-1.7023114-.9728935-3.2636854-2.388-4.214-.24-.153-.484-.288-.726-.43-.009-.207-.017-.412-.027-.623-.546-11.721-13.911-12.44-14.089-12.447h-2.064c-.134.006-13.5.725-14.045 12.438-.01.215-.018.419-.027.628-.242.142-.487.277-.726.429-1.415569.9512679-2.3003692 2.5137481-2.388 4.217-.464 6.552 1.033 10.707 4.222 11.859.005.147.018.289.018.44.1170683 4.1706672 1.640525 8.1793002 4.323 11.375.1253078 1.6572453.0301439 3.3237913-.283 4.956-5.0189311 2.1442101-10.30933099 3.5867711-15.722 4.287-2.47000965.3466403-4.30987729 2.4557985-4.318 4.95v.421c0 .5522847.44771525 1 1 1h58c.5522847 0 1-.4477153 1-1v-.421c-.0081227-2.4942015-1.8479903-4.6033597-4.318-4.95zm-26.692-48.629h1.975c.467.022 11.228.635 12.089 9.972-4.1132502-1.8403769-8.5494446-2.8503638-13.054-2.972-4.5043837.1212936-8.9405168 1.1305869-13.054 2.97.854-9.336 11.621-9.949 12.044-9.97zm-15.236 15.854c.0435545-1.0714791.5874454-2.0604053 1.469-2.671 6.477-4.124 14.695-4.183 14.777-4.183s8.285.048 14.777 4.184c.8819126.6102717 1.42591 1.5993916 1.469 2.671.2 2.775.255 9.3-3.428 9.984-2.9813804.6517619-6.0730335-.4575046-7.96-2.856-1.9-3.6-7.816-3.6-9.716 0-1.885558 2.4004891-4.9782938 3.5105326-7.96 2.857-3.682-.681-3.624-7.21-3.428-9.986zm4.246 12.11c3.4215255.3255636 6.7661389-1.1516722 8.83-3.9.028896-.0446476.0549477-.0910731.078-.139.6363683-1.0885751 1.8338884-1.7233536 3.092-1.639 1.2542106-.0853194 2.4493593.5437877 3.089 1.626.023322.0522837.0510906.102468.083.15 1.8671716 2.4882813 4.8000888 3.9482519 7.911 3.938.3 0 .605-.016.918-.042 0 6.175-4.552 12.85-10.712 15.1-.7983652.4604605-1.7816348.4604605-2.58 0-6.2297757-2.4844904-10.4219467-8.3932241-10.709-15.094zm-15.943 25.036c.251621-1.2532792 1.26715396-2.2110795 2.533-2.389 2.28451783-.3121385 4.55150215-.7413703 6.792-1.286.4881263 1.328854 1.188184 2.5699114 2.073 3.675zm41.617 0h-27.348c-1.3603381-1.0969451-2.3972383-2.5427297-3-4.183 2.239-.619 4.075-1.253 5.428-1.775-.3613119.4353473-.7929414.8071504-1.277 1.1-.4727557.2860835-.6240834.9012442-.3379999 1.374.2860834.4727557.9012442.6240835 1.3739999.338 3.231-1.954 3.794-5.489 3.838-8.359 1.8200053 1.6458517 3.9623463 2.8952952 6.291 3.669.8754419.3115446 1.8315581.3115446 2.707 0 2.3281061-.7737732 4.4700421-2.0228386 6.29-3.668.044 2.87.607 6.405 3.838 8.359.4727557.2860835 1.0879165.1347557 1.374-.338s.1347557-1.0879165-.338-1.374c-.4840586-.2928496-.9156881-.6646527-1.277-1.1 1.353.522 3.189 1.156 5.428 1.775-.600136 1.6387442-1.6334816 3.0840457-2.99 4.182zm2.871 0c.884816-1.1050886 1.5848737-2.346146 2.073-3.675 2.2404978.5446297 4.5074822.9738615 6.792 1.286 1.265846.1779205 2.281379 1.1357208 2.533 2.389z" fill="#20c997" data-original="#000000" style="" class=""/></g></g></g></svg>
